<svg width="164" height="126" viewBox="0 0 164 126" fill="none" xmlns="http://www.w3.org/2000/svg">
<path d="M7.77298 120.523C6.6531 120.523 5.5714 120.395 4.52788 120.141C3.48435 119.886 2.62536 119.556 1.95088 119.148L3.40163 115.865C4.03793 116.234 4.74422 116.533 5.5205 116.762C6.3095 116.979 7.07305 117.087 7.81116 117.087C8.24384 117.087 8.58107 117.061 8.82286 117.01C9.07738 116.947 9.26191 116.864 9.37644 116.762C9.49097 116.648 9.54824 116.514 9.54824 116.361C9.54824 116.12 9.41462 115.929 9.14737 115.789C8.88013 115.649 8.52381 115.534 8.0784 115.445C7.64572 115.343 7.1685 115.241 6.64674 115.14C6.12498 115.025 5.59685 114.879 5.06236 114.701C4.5406 114.522 4.05702 114.287 3.61161 113.994C3.17893 113.702 2.82897 113.32 2.56173 112.849C2.29448 112.365 2.16086 111.767 2.16086 111.055C2.16086 110.227 2.38993 109.477 2.84806 108.802C3.31892 108.115 4.01248 107.568 4.92874 107.161C5.85773 106.753 7.00942 106.55 8.38382 106.55C9.28736 106.55 10.1782 106.645 11.0563 106.836C11.9343 107.027 12.7233 107.32 13.4233 107.714L12.068 110.978C11.4062 110.647 10.7636 110.399 10.14 110.234C9.52915 110.068 8.93103 109.986 8.34564 109.986C7.91296 109.986 7.56936 110.024 7.31485 110.1C7.06033 110.177 6.8758 110.278 6.76127 110.406C6.65946 110.533 6.60856 110.673 6.60856 110.826C6.60856 111.055 6.74218 111.239 7.00942 111.379C7.27667 111.506 7.62663 111.615 8.05931 111.704C8.50472 111.793 8.9883 111.888 9.51006 111.99C10.0445 112.092 10.5727 112.232 11.0944 112.41C11.6162 112.588 12.0934 112.824 12.5261 113.116C12.9715 113.409 13.3278 113.791 13.5951 114.262C13.8623 114.732 13.9959 115.318 13.9959 116.018C13.9959 116.832 13.7605 117.583 13.2897 118.27C12.8315 118.945 12.1443 119.492 11.2281 119.912C10.3118 120.319 9.1601 120.523 7.77298 120.523ZM15.3365 120.217V106.855H21.7694C23.0166 106.855 24.0919 107.059 24.9954 107.466C25.9117 107.873 26.618 108.459 27.1143 109.222C27.6106 109.973 27.8588 110.864 27.8588 111.895C27.8588 112.925 27.6106 113.816 27.1143 114.567C26.618 115.318 25.9117 115.903 24.9954 116.323C24.0919 116.73 23.0166 116.934 21.7694 116.934H17.8371L19.8414 115.006V120.217H15.3365ZM19.8414 115.502L17.8371 113.46H21.4831C22.1067 113.46 22.5648 113.32 22.8575 113.04C23.1629 112.76 23.3156 112.378 23.3156 111.895C23.3156 111.411 23.1629 111.029 22.8575 110.749C22.5648 110.469 22.1067 110.329 21.4831 110.329H17.8371L19.8414 108.287V115.502ZM38.6243 120.217L34.3484 106.855H38.987L42.442 118.137H40.1132L43.7783 106.855H47.9205L51.3374 118.137H49.104L52.7118 106.855H56.9877L52.7118 120.217H47.8824L45.0954 110.978H46.3934L43.4537 120.217H38.6243ZM62.1113 111.818H68.067V115.063H62.1113V111.818ZM62.4167 116.819H69.0978V120.217H57.9881V106.855H68.8496V110.253H62.4167V116.819ZM70.8321 120.217V106.855H77.9713C79.8165 106.855 81.1782 107.186 82.0563 107.848C82.9344 108.497 83.3734 109.33 83.3734 110.348C83.3734 111.023 83.1825 111.627 82.8008 112.162C82.4317 112.684 81.8909 113.097 81.1782 113.403C80.4656 113.708 79.5875 113.861 78.5439 113.861L78.9257 112.83C79.9692 112.83 80.8664 112.976 81.6172 113.269C82.3808 113.562 82.9662 113.988 83.3734 114.548C83.7934 115.095 84.0033 115.757 84.0033 116.533C84.0033 117.691 83.5198 118.595 82.5526 119.244C81.5982 119.893 80.1983 120.217 78.3531 120.217H70.8321ZM75.2607 117.068H77.9713C78.4676 117.068 78.8366 116.979 79.0784 116.8C79.3329 116.622 79.4602 116.361 79.4602 116.018C79.4602 115.674 79.3329 115.413 79.0784 115.235C78.8366 115.057 78.4676 114.968 77.9713 114.968H74.9552V111.99H77.3604C77.8695 111.99 78.2385 111.907 78.4676 111.742C78.7094 111.564 78.8303 111.316 78.8303 110.997C78.8303 110.667 78.7094 110.418 78.4676 110.253C78.2385 110.087 77.8695 110.005 77.3604 110.005H75.2607V117.068ZM98.2291 120.523C97.1602 120.523 96.1676 120.357 95.2513 120.026C94.3478 119.683 93.5587 119.199 92.8843 118.576C92.2225 117.952 91.7071 117.214 91.3381 116.361C90.969 115.509 90.7845 114.567 90.7845 113.536C90.7845 112.505 90.969 111.564 91.3381 110.711C91.7071 109.858 92.2225 109.12 92.8843 108.497C93.5587 107.873 94.3478 107.396 95.2513 107.065C96.1676 106.721 97.1602 106.55 98.2291 106.55C99.5399 106.55 100.698 106.779 101.703 107.237C102.721 107.695 103.561 108.357 104.223 109.222L101.379 111.761C100.984 111.265 100.545 110.883 100.062 110.616C99.5908 110.336 99.0563 110.196 98.4582 110.196C97.9874 110.196 97.561 110.272 97.1793 110.425C96.7975 110.577 96.4666 110.8 96.1866 111.093C95.9194 111.386 95.7094 111.742 95.5567 112.162C95.404 112.569 95.3276 113.027 95.3276 113.536C95.3276 114.045 95.404 114.51 95.5567 114.93C95.7094 115.337 95.9194 115.687 96.1866 115.98C96.4666 116.272 96.7975 116.495 97.1793 116.648C97.561 116.8 97.9874 116.877 98.4582 116.877C99.0563 116.877 99.5908 116.743 100.062 116.476C100.545 116.196 100.984 115.808 101.379 115.311L104.223 117.85C103.561 118.703 102.721 119.365 101.703 119.836C100.698 120.294 99.5399 120.523 98.2291 120.523ZM105.524 120.217V106.855H111.957C113.204 106.855 114.279 107.059 115.183 107.466C116.099 107.873 116.805 108.459 117.302 109.222C117.798 109.973 118.046 110.864 118.046 111.895C118.046 112.925 117.798 113.816 117.302 114.567C116.805 115.305 116.099 115.871 115.183 116.266C114.279 116.66 113.204 116.858 111.957 116.858H108.024L110.029 115.006V120.217H105.524ZM113.522 120.217L110.239 115.35H115.011L118.332 120.217H113.522ZM110.029 115.502L108.024 113.46H111.67C112.294 113.46 112.752 113.32 113.045 113.04C113.35 112.76 113.503 112.378 113.503 111.895C113.503 111.411 113.35 111.029 113.045 110.749C112.752 110.469 112.294 110.329 111.67 110.329H108.024L110.029 108.287V115.502ZM123.87 111.818H129.826V115.063H123.87V111.818ZM124.176 116.819H130.857V120.217H119.747V106.855H130.609V110.253H124.176V116.819ZM131.14 120.217L136.982 106.855H141.41L147.251 120.217H142.594L138.28 108.993H140.036L135.722 120.217H131.14ZM134.615 117.888L135.76 114.643H141.906L143.052 117.888H134.615ZM150.201 120.217V110.348H146.288V106.855H158.619V110.348H154.706V120.217H150.201ZM160.931 120.408C160.219 120.408 159.621 120.179 159.137 119.721C158.653 119.25 158.412 118.652 158.412 117.927C158.412 117.189 158.653 116.597 159.137 116.151C159.621 115.706 160.219 115.483 160.931 115.483C161.644 115.483 162.242 115.706 162.726 116.151C163.209 116.597 163.451 117.189 163.451 117.927C163.451 118.652 163.209 119.25 162.726 119.721C162.242 120.179 161.644 120.408 160.931 120.408Z" fill="#FDFDFD"/>
<path d="M104.85 75.7297V58.9228L148.943 43.7967V53.4853L104.85 38.3592V21.5523L155.27 39.8421V57.4399L104.85 75.7297Z" fill="#FDFDFD"/>
<path d="M51.9151 93.1297L84.5402 0H104.313L71.6879 93.1297H51.9151Z" fill="#E50035"/>
<path d="M50.4205 75.7297L0 57.4399V39.8421L50.4205 21.5523V38.3592L6.32728 53.4853V43.7967L50.4205 58.9228V75.7297Z" fill="#FDFDFD"/>
</svg>
